<svg xmlns="http://www.w3.org/2000/svg" viewBox="0 0 200 240" fill="none">
  
  

  
  <path d="M 100 10 L 190 10 L 190 140 Q 190 200 100 230 Q 10 200 10 140 L 10 10 Z" fill="#800000" stroke="#5A0000" stroke-width="2"></path>

  
  <path d="M 100 18 L 182 18 L 182 140 Q 182 196 100 222 Q 18 196 18 140 L 18 18 Z" fill="none" stroke="rgba(255,255,255,0.25)" stroke-width="1.5"></path>

  
  <line x1="10" y1="75" x2="190" y2="75" stroke="#5A0000" stroke-width="2"></line>
  
  <path d="M 100 10 L 190 10 L 190 75 L 10 75 L 10 10 Z" fill="white" opacity="0.08"></path>

  
  <g transform="translate(100, 42)">
    
    <rect x="-28" y="-18" width="56" height="36" rx="2" fill="white" opacity="0.9"></rect>
    <rect x="-28" y="-18" width="56" height="36" rx="2" fill="none" stroke="#5A0000" stroke-width="1.5"></rect>
    
    <line x1="-2" y1="-18" x2="-2" y2="18" stroke="#800000" stroke-width="2"></line>
    
    <line x1="-20" y1="-8" x2="-6" y2="-8" stroke="#800000" stroke-width="1.2" opacity="0.7"></line>
    <line x1="-20" y1="-2" x2="-6" y2="-2" stroke="#800000" stroke-width="1.2" opacity="0.7"></line>
    <line x1="-20" y1="4" x2="-6" y2="4" stroke="#800000" stroke-width="1.2" opacity="0.7"></line>
    <line x1="-20" y1="10" x2="-6" y2="10" stroke="#800000" stroke-width="1.2" opacity="0.7"></line>
    <line x1="6" y1="-8" x2="20" y2="-8" stroke="#800000" stroke-width="1.2" opacity="0.7"></line>
    <line x1="6" y1="-2" x2="20" y2="-2" stroke="#800000" stroke-width="1.2" opacity="0.7"></line>
    <line x1="6" y1="4" x2="20" y2="4" stroke="#800000" stroke-width="1.2" opacity="0.7"></line>
    <line x1="6" y1="10" x2="20" y2="10" stroke="#800000" stroke-width="1.2" opacity="0.7"></line>
  </g>

  
  <g transform="translate(100, 150)">
    
    <path d="M -30 30 Q -40 10 -20 0 Q -30 -10 -10 -15 Q -20 -30 0 -35 Q 20 -30 10 -15 Q 30 -10 20 0 Q 40 10 30 30 Q 20 15 10 20 Q 5 10 0 8 Q -5 10 -10 20 Q -20 15 -30 30 Z" fill="#C4903A" opacity="0.85"></path>
    
    <path d="M -8 25 Q -12 5 0 -10 Q 12 5 8 25 Z" fill="#E4BC78" opacity="0.5"></path>

    
    <ellipse cx="0" cy="-30" rx="11" ry="20" fill="white" opacity="0.95"></ellipse>
    
    <path d="M -11 -35 Q -40 -50 -50 -30 Q -35 -35 -20 -25 Q -15 -30 -11 -25 Z" fill="white" opacity="0.9"></path>
    <path d="M 11 -35 Q 40 -50 50 -30 Q 35 -35 20 -25 Q 15 -30 11 -25 Z" fill="white" opacity="0.9"></path>
    
    <ellipse cx="0" cy="-52" rx="7" ry="9" fill="white" opacity="0.95"></ellipse>
    
    <circle cx="0" cy="-63" r="8" fill="white" opacity="0.95"></circle>
    
    <path d="M -4 -70 Q -8 -82 -5 -90 Q -2 -80 0 -72 Q 2 -80 5 -90 Q 8 -82 4 -70 Z" fill="white" opacity="0.9"></path>
    
    <circle cx="3" cy="-63" r="2.5" fill="#800000"></circle>
    <circle cx="3.5" cy="-63" r="1" fill="white"></circle>
    
    <path d="M 0 -58 L 6 -55 L 0 -54 Z" fill="#C4903A"></path>
    
    <path d="M -8 -12 Q -14 0 -18 12 Q -8 5 0 0 Q 8 5 18 12 Q 14 0 8 -12 Z" fill="white" opacity="0.8"></path>
  </g>

  
  <path d="M 15 218 Q 100 238 185 218" fill="none" stroke="#5A0000" stroke-width="1"></path>
  <text x="100" y="236" text-anchor="middle" font-family="Georgia, serif" font-size="7.5" fill="white" opacity="0.85" font-style="italic" letter-spacing="0.3">
    Crescat scientia; vita excolatur
  </text>
</svg>