<svg xmlns="http://www.w3.org/2000/svg" viewBox="0 0 120 100" fill="none">
  
  <g fill="#800000">
    
    <ellipse cx="60" cy="62" rx="14" ry="18" fill="#800000"></ellipse>
    
    <path d="M46 58 C30 45 18 50 20 65 C28 58 38 60 46 68 Z" fill="#800000"></path>
    
    <path d="M74 58 C90 45 102 50 100 65 C92 58 82 60 74 68 Z" fill="#800000"></path>
    
    <path d="M52 78 C48 88 44 94 40 98 C50 92 55 85 60 80 C65 85 70 92 80 98 C76 94 72 88 68 78 Z" fill="#800000"></path>
    
    <ellipse cx="60" cy="48" rx="8" ry="10" fill="#800000"></ellipse>
    
    <circle cx="60" cy="36" r="9" fill="#800000"></circle>
    
    <path d="M56 28 C54 20 50 14 52 8 C56 16 58 22 60 26 C62 22 64 16 68 8 C70 14 66 20 64 28 Z" fill="#800000"></path>
    
    <circle cx="63" cy="35" r="2.5" fill="white"></circle>
    <circle cx="63.5" cy="35" r="1.2" fill="#800000"></circle>
    
    <path d="M60 40 L65 43 L60 44 Z" fill="#C4903A"></path>
    
    <path d="M50 80 C48 88 52 95 60 98 C68 95 72 88 70 80 C66 86 62 84 60 82 C58 84 54 86 50 80 Z" fill="#C4903A" opacity="0.7"></path>
  </g>
</svg>